<?xml version="1.0" encoding="UTF-8"?>
<!DOCTYPE svg PUBLIC "-//W3C//DTD SVG 1.1//EN" "http://www.w3.org/Graphics/SVG/1.1/DTD/svg11.dtd">
<!-- Creator: CorelDRAW 2020 (64-Bit) -->
<svg xmlns="http://www.w3.org/2000/svg" xml:space="preserve" width="95.8932mm" height="17.1539mm" version="1.1" style="shape-rendering:geometricPrecision; text-rendering:geometricPrecision; image-rendering:optimizeQuality; fill-rule:evenodd; clip-rule:evenodd"
viewBox="0 0 31135.95 5569.77"
 xmlns:xlink="http://www.w3.org/1999/xlink"
 xmlns:xodm="http://www.corel.com/coreldraw/odm/2003">
 <defs>
  <style type="text/css">
   <![CDATA[
    .str3 {stroke:#2B2A29;stroke-width:343.62;stroke-miterlimit:22.9256}
    .str0 {stroke:#2B2A29;stroke-width:114.55;stroke-miterlimit:22.9256}
    .str2 {stroke:#2B2A29;stroke-width:114.55;stroke-miterlimit:22.9256}
    .str1 {stroke:#372772;stroke-width:114.55;stroke-miterlimit:22.9256}
    .fil0 {fill:none}
    .fil1 {fill:#372772}
   ]]>
  </style>
 </defs>
 <g id="Ebene_x0020_1">
  <metadata id="CorelCorpID_0Corel-Layer"/>
  <rect class="fil0 str0" x="21271.13" y="57.26" width="3651.12" height="5455.22"/>
  <polyline class="fil0 str1" points="23096.69,5512.49 21271.13,2784.9 23096.69,57.28 "/>
  <rect class="fil0 str2" x="9777.53" y="57.26" width="5455.18" height="5455.22"/>
  <circle class="fil0 str1" cx="12505.14" cy="2784.9" r="1623.47"/>
  <line class="fil0 str1" x1="10942.26" y1="3189.37" x2="13577.44" y2= "3967.57" />
  <line class="fil0 str1" x1="13577.47" y1="1533.43" x2="10942.29" y2= "2311.63" />
  <rect class="fil0 str0" x="28061.95" y="57.26" width="3016.73" height="5455.22"/>
  <circle class="fil1 str1" cx="29545.34" cy="1161.43" r="487.04"/>
  <circle class="fil1 str1" cx="29545.34" cy="4408.37" r="487.04"/>
  <line class="fil0 str1" x1="28966.35" y1="1825.75" x2="29545.34" y2= "1161.43" />
  <line class="fil0 str1" x1="30124.34" y1="3744.05" x2="29545.34" y2= "4408.37" />
  <line class="fil0 str1" x1="29545.34" y1="1161.43" x2="30124.34" y2= "497.11" />
  <line class="fil0 str1" x1="28966.35" y1="5072.7" x2="29545.34" y2= "4408.37" />
  <rect class="fil0 str0" x="28061.95" y="57.26" width="3016.73" height="5455.22"/>
  <circle class="fil1 str1" cx="29545.34" cy="1161.43" r="487.04"/>
  <circle class="fil1 str1" cx="29545.34" cy="4408.37" r="487.04"/>
  <line class="fil0 str1" x1="28966.35" y1="1825.75" x2="29545.34" y2= "1161.43" />
  <line class="fil0 str1" x1="30124.34" y1="3744.05" x2="29545.34" y2= "4408.37" />
  <line class="fil0 str1" x1="29545.34" y1="1161.43" x2="30124.34" y2= "497.11" />
  <line class="fil0 str1" x1="28966.35" y1="5072.7" x2="29545.34" y2= "4408.37" />
  <rect class="fil0 str0" x="57.28" y="57.26" width="3016.73" height="5455.22"/>
  <circle class="fil1 str1" cx="1540.67" cy="1161.43" r="487.04"/>
  <circle class="fil1 str1" cx="1540.67" cy="4408.37" r="487.04"/>
  <line class="fil0 str1" x1="961.68" y1="1825.75" x2="1540.67" y2= "1161.43" />
  <line class="fil0 str1" x1="2119.67" y1="3744.05" x2="1540.67" y2= "4408.37" />
  <line class="fil0 str1" x1="1540.67" y1="1161.43" x2="2119.67" y2= "497.11" />
  <line class="fil0 str1" x1="961.68" y1="5072.7" x2="1540.67" y2= "4408.37" />
  <rect class="fil0 str0" x="57.28" y="57.26" width="3016.73" height="5455.22"/>
  <circle class="fil1 str1" cx="1540.67" cy="1161.43" r="487.04"/>
  <circle class="fil1 str1" cx="1540.67" cy="4408.37" r="487.04"/>
  <line class="fil0 str1" x1="961.68" y1="1825.75" x2="1540.67" y2= "1161.43" />
  <line class="fil0 str1" x1="2119.67" y1="3744.05" x2="1540.67" y2= "4408.37" />
  <line class="fil0 str1" x1="1540.67" y1="1161.43" x2="2119.67" y2= "497.11" />
  <line class="fil0 str1" x1="961.68" y1="5072.7" x2="1540.67" y2= "4408.37" />
  <line class="fil0 str3" x1="24922.25" y1="2784.9" x2="28061.95" y2= "2784.9" />
  <line class="fil0 str3" x1="15232.7" y1="2784.9" x2="21271.13" y2= "2784.9" />
  <line class="fil0 str3" x1="3074.04" y1="2784.9" x2="9777.55" y2= "2784.9" />
 </g>
</svg>
