<?xml version="1.0" encoding="UTF-8"?>
<!DOCTYPE svg PUBLIC "-//W3C//DTD SVG 1.1//EN" "http://www.w3.org/Graphics/SVG/1.1/DTD/svg11.dtd">
<!-- Creator: CorelDRAW 2020 (64-Bit) -->
<svg xmlns="http://www.w3.org/2000/svg" xml:space="preserve" width="76.3973mm" height="77.6969mm" version="1.1" style="shape-rendering:geometricPrecision; text-rendering:geometricPrecision; image-rendering:optimizeQuality; fill-rule:evenodd; clip-rule:evenodd"
viewBox="0 0 5467.59 5560.6"
 xmlns:xlink="http://www.w3.org/1999/xlink"
 xmlns:xodm="http://www.corel.com/coreldraw/odm/2003">
 <defs>
  <style type="text/css">
   <![CDATA[
    .str0 {stroke:#2B2A29;stroke-width:100.99;stroke-miterlimit:22.9256}
    .str1 {stroke:#372772;stroke-width:100.99;stroke-miterlimit:22.9256}
    .str2 {stroke:#FF4A1C;stroke-width:100.99;stroke-miterlimit:22.9256}
    .fil0 {fill:none}
    .fil1 {fill:none;fill-rule:nonzero}
   ]]>
  </style>
 </defs>
 <g id="Ebene_x0020_1">
  <metadata id="CorelCorpID_0Corel-Layer"/>
  <line class="fil0 str0" x1="166.74" y1="4293.99" x2="166.74" y2= "1624.05" />
  <line class="fil0 str0" x1="3745.13" y1="4293.99" x2="3745.13" y2= "1624.05" />
  <polygon class="fil1 str0" points="136.14,1624.05 1946.86,66.6 3757.59,1624.05 "/>
  <path class="fil0 str1" d="M5458.08 5059.03c-2260.79,153.68 -3330.66,-243.97 -3209.6,-1192.94"/>
  <path class="fil0 str1" d="M5463.68 5467.44c-2651.77,206.29 -3906.66,-327.49 -3764.67,-1601.36"/>
  <line class="fil0 str0" x1="121.32" y1="4249.57" x2="1389.29" y2= "4249.57" />
  <line class="fil0 str0" x1="2527.26" y1="4293.99" x2="3795.22" y2= "4293.99" />
  <g id="_1700032706960">
   <path class="fil0 str2" d="M1188.96 2336.76c135.7,149.83 135.7,282.39 0,397.65"/>
   <path class="fil0 str2" d="M1190.55 3131.62c-135.7,-149.83 -135.7,-282.39 0,-397.65"/>
   <path class="fil0 str2" d="M1188.96 3131.16c135.7,149.83 135.7,282.39 0,397.65"/>
  </g>
  <g id="_1700032705952">
   <path class="fil0 str2" d="M1904.61 2336.76c135.7,149.83 135.7,282.39 0,397.65"/>
   <path class="fil0 str2" d="M1906.2 3131.62c-135.7,-149.83 -135.7,-282.39 0,-397.65"/>
   <path class="fil0 str2" d="M1904.61 3131.16c135.7,149.83 135.7,282.39 0,397.65"/>
  </g>
  <g id="_1700032708880">
   <path class="fil0 str2" d="M2620.29 2336.76c135.7,149.83 135.7,282.39 0,397.65"/>
   <path class="fil0 str2" d="M2621.88 3131.62c-135.7,-149.83 -135.7,-282.39 0,-397.65"/>
   <path class="fil0 str2" d="M2620.29 3131.16c135.7,149.83 135.7,282.39 0,397.65"/>
  </g>
 </g>
</svg>
