<?xml version="1.0" encoding="UTF-8"?>
<!DOCTYPE svg PUBLIC "-//W3C//DTD SVG 1.1//EN" "http://www.w3.org/Graphics/SVG/1.1/DTD/svg11.dtd">
<!-- Creator: CorelDRAW 2020 (64-Bit) -->
<svg xmlns="http://www.w3.org/2000/svg" xml:space="preserve" width="25.3436mm" height="14.7871mm" version="1.1" style="shape-rendering:geometricPrecision; text-rendering:geometricPrecision; image-rendering:optimizeQuality; fill-rule:evenodd; clip-rule:evenodd"
viewBox="0 0 687.62 401.2"
 xmlns:xlink="http://www.w3.org/1999/xlink"
 xmlns:xodm="http://www.corel.com/coreldraw/odm/2003">
 <defs>
  <style type="text/css">
   <![CDATA[
    .str0 {stroke:#372772;stroke-width:28.71;stroke-miterlimit:22.9256}
    .str1 {stroke:#2B2A29;stroke-width:9.57;stroke-miterlimit:22.9256}
    .str2 {stroke:#1F1B20;stroke-width:9.57;stroke-miterlimit:22.9256}
    .fil0 {fill:none}
    .fil2 {fill:#372772}
    .fil1 {fill:#FF4A1C}
   ]]>
  </style>
 </defs>
 <g id="Ebene_x0020_1">
  <metadata id="CorelCorpID_0Corel-Layer"/>
  <g id="_1700045228784">
   <path class="fil0 str0" d="M224.76 348.86c56.8,-51.45 107.05,-51.45 150.75,0"/>
   <path class="fil0 str0" d="M526.1 348.26c-56.8,51.45 -107.05,51.45 -150.75,0"/>
   <path class="fil0 str0" d="M525.93 348.86c56.8,-51.45 107.05,-51.45 150.75,0"/>
  </g>
  <path class="fil0 str1" d="M18.35 29.47l218.39 0 0 164.21 -218.39 0c-7.46,0 -13.57,-6.11 -13.57,-13.57l0 -137.08c0,-7.46 6.1,-13.56 13.57,-13.56z"/>
  <rect class="fil1 str2" x="250.31" y="4.79" width="32.3" height="215.81" rx="37.98" ry="33.71"/>
  <g id="_1700045231520">
   <path class="fil0 str1" d="M375.36 307.64c45.71,47.44 80.7,59.7 104.99,36.79 6.12,-176.76 -50.71,-264.1 -170.49,-262.02"/>
   <path class="fil0 str1" d="M309.86 82.41l-0.9 54.69c67.86,27.36 90,84.21 66.4,170.55"/>
  </g>
  <path class="fil2" d="M309.86 82.41l-0.9 54.69c67.86,27.36 90,84.21 66.4,170.55 45.71,47.44 80.7,59.7 104.99,36.79 6.12,-176.76 -50.71,-264.1 -170.49,-262.02z"/>
 </g>
</svg>
