<?xml version="1.0" encoding="UTF-8"?>
<!DOCTYPE svg PUBLIC "-//W3C//DTD SVG 1.1//EN" "http://www.w3.org/Graphics/SVG/1.1/DTD/svg11.dtd">
<!-- Creator: CorelDRAW 2020 (64-Bit) -->
<svg xmlns="http://www.w3.org/2000/svg" xml:space="preserve" width="75.6996mm" height="83.6996mm" version="1.1" style="shape-rendering:geometricPrecision; text-rendering:geometricPrecision; image-rendering:optimizeQuality; fill-rule:evenodd; clip-rule:evenodd"
viewBox="0 0 3493.27 3862.44"
 xmlns:xlink="http://www.w3.org/1999/xlink"
 xmlns:xodm="http://www.corel.com/coreldraw/odm/2003">
 <defs>
  <style type="text/css">
   <![CDATA[
    .str0 {stroke:#FF4A1C;stroke-width:9.23;stroke-miterlimit:22.9256}
    .fil0 {fill:black}
    .fil2 {fill:#FF4A1C}
    .fil1 {fill:white}
   ]]>
  </style>
 </defs>
 <g id="Ebene_x0020_1">
  <metadata id="CorelCorpID_0Corel-Layer"/>
  <path class="fil0" d="M1495.32 481.58c-175.22,29.38 -349.08,113.67 -486.86,210.02 -217.25,151.91 -398.76,392.94 -484.25,685.93 -40.89,140.12 -47.95,261.41 -47.95,416.46l0.08 701.17c0.58,62.67 -8.19,44.85 -37.18,81.04 -16.25,20.28 -37.6,45.21 -54.82,63.53 -87.41,92.95 -140.34,144.77 -142.48,327.68 -44.49,26.52 -88.42,26.24 -146.29,98.99 -127.07,159.73 -43.96,409.63 169.29,450.1 70.09,13.3 865.39,0.81 984.18,5.27 61.85,308.25 521.28,447.67 818.15,246.57 70.73,-47.91 156.8,-135.66 175.34,-246.75 102.99,-2.28 919.9,7.51 984.44,-4.92 217.53,-41.92 294.88,-293.79 169.46,-450.29 -42.74,-53.33 -75.73,-68.78 -151.1,-99.51 -1.2,-81.71 -5.8,-129.6 -38.28,-194.19 -30.77,-61.16 -90.49,-113.68 -128.27,-160.8 -9.3,-11.6 -17.67,-17.95 -27.4,-29.4 -43.37,-51.06 -41.13,-34.17 -40.86,-77.73l0.19 -701.3c0.01,-291.61 -46,-496.26 -192.21,-740.9 -28.87,-48.3 -64.18,-97.27 -96.34,-135.77 -61.36,-73.44 -62.68,-66.94 -114.42,-122.43 -126.16,-135.26 -422.87,-300.08 -616.71,-321.95 11.67,-35.58 47.51,-64.77 54.49,-156.75 12.65,-166.81 -116.27,-324.22 -299.4,-325.66 -221.94,-1.74 -358.21,218.33 -287.38,408.78 11.33,30.47 27.06,48.86 36.58,72.78z"/>
  <path class="fil1" d="M391.4 2959.09l2704.37 0.72c0.04,-88.05 -14.82,-120.12 -58.74,-168.77l-161.73 -184.05c-17.72,-28.11 -13.97,-62.91 -13.97,-102.42l0 -696.36c0,-156.92 -9.79,-273.4 -53.65,-412.45 -130.35,-413.25 -525.31,-788.86 -1061.67,-789.74 -544.86,-0.89 -938.15,368.26 -1068.94,782.1 -44.2,139.85 -51.62,253.95 -51.62,410.62l0 696.36c-0,103.75 10.83,88.43 -63.95,170.38 -38.83,42.55 -73.19,80.19 -109.17,122.81 -43.67,51.73 -63.59,77.8 -60.95,170.81z"/>
  <path class="fil1" d="M285.71 3113.07c-124.26,28.9 -135.45,198.91 -21.67,248 49.28,21.26 334.35,10.84 411.4,10.84 773.73,0 1547.47,0 2321.2,0 47.33,0 171.85,5.68 210.4,-3.5 124.3,-29.6 130.68,-201.08 21.88,-248.25 -49.4,-21.42 -334.62,-11.08 -412.29,-11.08l-2321.2 0c-50.47,0 -168.39,-5.61 -209.71,4z"/>
  <path class="fil2 str0" d="M659.58 265.23c-167.49,65.34 -369.74,265.82 -457.23,392.49 -93.91,135.97 -159.69,274.06 -195.31,444.44 -13.59,64.98 31.48,119.09 94.16,98.51 55.38,-18.18 51.13,-74.65 69.54,-138.83 73.52,-256.3 238.1,-464.61 456.58,-609.17 37.9,-25.08 109.06,-55.52 122.58,-90.57 22.57,-58.53 -34.59,-118.61 -90.32,-96.87z"/>
  <path class="fil2 str0" d="M2837.32 278.38c-22.63,10.6 -40.52,24.64 -44.12,56.95 -7.83,70.41 64.48,84.78 150.49,152.07 80.12,62.67 144.25,120.73 206.83,195.83 232.93,279.52 157.5,442.68 213.73,492.12 19.26,16.94 52.64,25.31 82.18,11.71 55.84,-25.7 43.27,-90.43 34.45,-147.28 -46.21,-297.98 -265.6,-548.59 -501.75,-710.92 -32.47,-22.32 -89.4,-75.04 -141.81,-50.49z"/>
  <path class="fil1" d="M2085.22 3521.23l-678.44 0.04c26.25,114.34 203.76,192.69 339.23,192.54 135.13,-0.16 309.39,-74.95 339.21,-192.57z"/>
  <path class="fil2 str0" d="M2797.12 766.03c220.26,160.68 154.9,350.23 191.82,405.56 31,46.45 104.66,42.47 129.28,-9.11 34.61,-72.49 -31.05,-268.5 -60.93,-324.32 -41.36,-77.26 -121.21,-171.07 -193.31,-203.72 -11.05,9.78 -64.27,114.19 -66.86,131.6z"/>
  <path class="fil2 str0" d="M695.06 766.03c-1.57,-17.11 -55.69,-121.84 -67,-131.67 -71.78,32.74 -152.05,127.75 -193.21,203.85 -29.02,53.66 -95.91,252.18 -60.97,324.14 25.09,51.67 97.93,56.82 129.3,9.44 34.81,-52.57 -24.96,-252.01 191.88,-405.76z"/>
  <path class="fil1" d="M1709.19 154c-203.04,51.06 -123.92,345.35 69.7,298.85 70.46,-16.92 136.17,-90.63 114.3,-184.37 -16.87,-72.28 -91.26,-137.8 -183.99,-114.48z"/>
 </g>
</svg>
