<?xml version="1.0" encoding="UTF-8"?>
<!DOCTYPE svg PUBLIC "-//W3C//DTD SVG 1.1//EN" "http://www.w3.org/Graphics/SVG/1.1/DTD/svg11.dtd">
<!-- Creator: CorelDRAW 2020 (64-Bit) -->
<svg xmlns="http://www.w3.org/2000/svg" xml:space="preserve" width="161.961mm" height="17.1539mm" version="1.1" style="shape-rendering:geometricPrecision; text-rendering:geometricPrecision; image-rendering:optimizeQuality; fill-rule:evenodd; clip-rule:evenodd"
viewBox="0 0 16291.94 1725.54"
 xmlns:xlink="http://www.w3.org/1999/xlink"
 xmlns:xodm="http://www.corel.com/coreldraw/odm/2003">
 <defs>
  <style type="text/css">
   <![CDATA[
    .str3 {stroke:#2B2A29;stroke-width:106.46;stroke-miterlimit:22.9256}
    .str0 {stroke:#2B2A29;stroke-width:35.49;stroke-miterlimit:22.9256}
    .str1 {stroke:#372772;stroke-width:35.49;stroke-miterlimit:22.9256}
    .str2 {stroke:#FF4A1C;stroke-width:35.49;stroke-miterlimit:22.9256}
    .fil0 {fill:none}
    .fil1 {fill:#372772}
   ]]>
  </style>
 </defs>
 <g id="Ebene_x0020_1">
  <metadata id="CorelCorpID_0Corel-Layer"/>
  <rect class="fil0 str0" x="1958.29" y="17.74" width="1131.13" height="1690.05"/>
  <polyline class="fil0 str1" points="2523.86,1707.8 3089.42,862.78 2523.86,17.74 "/>
  <rect class="fil0 str0" x="17.74" y="17.74" width="934.6" height="1690.05"/>
  <circle class="fil1 str1" cx="477.31" cy="359.82" r="150.89"/>
  <circle class="fil1 str1" cx="477.31" cy="1365.73" r="150.89"/>
  <line class="fil0 str1" x1="297.93" y1="565.63" x2="477.31" y2= "359.82" />
  <line class="fil0 str1" x1="656.68" y1="1159.92" x2="477.31" y2= "1365.73" />
  <line class="fil0 str1" x1="477.31" y1="359.82" x2="656.68" y2= "154.01" />
  <line class="fil0 str1" x1="297.93" y1="1571.54" x2="477.31" y2= "1365.73" />
  <rect class="fil0 str0" x="4095.37" y="17.74" width="1131.13" height="1690.05"/>
  <line class="fil0 str2" x1="4095.37" y1="1707.8" x2="5226.5" y2= "17.74" />
  <rect class="fil0 str0" x="6232.44" y="17.74" width="1131.13" height="1690.05"/>
  <line class="fil0 str1" x1="6232.44" y1="17.74" x2="7363.57" y2= "1707.8" />
  <line class="fil0 str1" x1="7363.57" y1="17.74" x2="6232.44" y2= "1707.8" />
  <rect class="fil0 str0" x="8369.5" y="17.74" width="1690.04" height="1690.05"/>
  <circle class="fil0 str1" cx="9214.51" cy="862.78" r="502.96"/>
  <line class="fil0 str1" x1="9698.7" y1="988.08" x2="8882.31" y2= "1229.17" />
  <line class="fil0 str1" x1="8882.3" y1="475.06" x2="9698.69" y2= "716.15" />
  <rect class="fil0 str0" x="11065.47" y="17.74" width="1131.13" height="1690.05"/>
  <line class="fil0 str2" x1="11065.47" y1="1707.8" x2="12196.6" y2= "17.74" />
  <rect class="fil0 str0" x="13202.54" y="17.74" width="1131.13" height="1690.05"/>
  <polyline class="fil0 str1" points="13768.11,1707.8 14333.67,862.78 13768.11,17.74 "/>
  <rect class="fil0 str0" x="17.74" y="17.74" width="934.6" height="1690.05"/>
  <circle class="fil1 str1" cx="477.31" cy="359.82" r="150.89"/>
  <circle class="fil1 str1" cx="477.31" cy="1365.73" r="150.89"/>
  <line class="fil0 str1" x1="297.93" y1="565.63" x2="477.31" y2= "359.82" />
  <line class="fil0 str1" x1="656.68" y1="1159.92" x2="477.31" y2= "1365.73" />
  <line class="fil0 str1" x1="477.31" y1="359.82" x2="656.68" y2= "154.01" />
  <line class="fil0 str1" x1="297.93" y1="1571.54" x2="477.31" y2= "1365.73" />
  <rect class="fil0 str0" x="15339.6" y="17.74" width="934.6" height="1690.05"/>
  <circle class="fil1 str1" cx="15799.17" cy="359.82" r="150.89"/>
  <circle class="fil1 str1" cx="15799.17" cy="1365.73" r="150.89"/>
  <line class="fil0 str1" x1="15619.79" y1="565.63" x2="15799.17" y2= "359.82" />
  <line class="fil0 str1" x1="15978.54" y1="1159.92" x2="15799.17" y2= "1365.73" />
  <line class="fil0 str1" x1="15799.17" y1="359.82" x2="15978.54" y2= "154.01" />
  <line class="fil0 str1" x1="15619.79" y1="1571.54" x2="15799.17" y2= "1365.73" />
  <rect class="fil0 str0" x="15339.6" y="17.74" width="934.6" height="1690.05"/>
  <circle class="fil1 str1" cx="15799.17" cy="359.82" r="150.89"/>
  <circle class="fil1 str1" cx="15799.17" cy="1365.73" r="150.89"/>
  <line class="fil0 str1" x1="15619.79" y1="565.63" x2="15799.17" y2= "359.82" />
  <line class="fil0 str1" x1="15978.54" y1="1159.92" x2="15799.17" y2= "1365.73" />
  <line class="fil0 str1" x1="15799.17" y1="359.82" x2="15978.54" y2= "154.01" />
  <line class="fil0 str1" x1="15619.79" y1="1571.54" x2="15799.17" y2= "1365.73" />
  <line class="fil0 str3" x1="952.34" y1="862.78" x2="1958.29" y2= "862.78" />
  <line class="fil0 str3" x1="3089.42" y1="862.78" x2="4095.37" y2= "862.78" />
  <line class="fil0 str3" x1="5226.5" y1="862.78" x2="6232.44" y2= "862.78" />
  <line class="fil0 str3" x1="7363.57" y1="862.78" x2="8369.5" y2= "862.78" />
  <line class="fil0 str3" x1="10059.53" y1="862.78" x2="11065.47" y2= "862.78" />
  <line class="fil0 str3" x1="12196.6" y1="862.78" x2="13202.54" y2= "862.78" />
  <line class="fil0 str3" x1="14333.67" y1="862.78" x2="15339.6" y2= "862.78" />
 </g>
</svg>
