<?xml version="1.0" encoding="UTF-8"?>
<svg id="Ebene_2" data-name="Ebene 2" xmlns="http://www.w3.org/2000/svg" viewBox="0 0 11.47 11.48">
  <defs>
    <style>
      .cls-1 {
        fill: #fff;
      }

      .cls-1, .cls-2 {
        fill-rule: evenodd;
        stroke-width: 0px;
      }

      .cls-2 {
        fill: #000003;
      }
    </style>
  </defs>
  <g id="WärmeAus">
    <g>
      <path class="cls-2" d="M.42,2.33l-.36.13c-.08.42-.07,6.26.01,6.57.01,0,.17.06.18.06.12.05.1.03.17.09,0,.52-.09,1.8.05,2.2.13.17,2.4.08,2.59.08h7.36c.16,0,.33.02.48-.02.11-.03.08-.03.12-.06.14-.4.04-1.67.04-2.2.11-.09.19-.07.35-.16.08-.29.09-6.14.01-6.55l-.37-.11C11.08-.44,11.4.03,9.58.03,6.78.03,3.77.07,1,.03.21.02.42-.05.42,2.33Z"/>
      <path class="cls-1" d="M.45,8.7h10.6V2.79s-.06,0-.06,0H.49c-.11.61-.13,5.49-.03,5.9Z"/>
      <path class="cls-2" d="M1.23,7.48c.39.09,2.76.04,3.48.04,1.64,0,1.18.38,1.23-2.95.01-.85-.09-.6-2.38-.6s-2.37-.24-2.36.6c.01.85-.08,2.16.03,2.92Z"/>
      <path class="cls-1" d="M.81,11.06h.25s9.6,0,9.6,0v-1.95h-.78c0,.83.38.35.39.97,0,.74-1.1.81-1.17.05-.06-.67.39-.17.39-1.03h-1.18c0,.85.33.26.39.92.03.36-.15.59-.46.64-.66.11-1.05-.76-.32-1.14v-.41c-.39-.03-.79-.03-1.18.01,0,.71.23.35.36.78.25.83-1.08,1.1-1.14.23-.05-.68.39-.2.39-1.03h-1.18c.01.85.38.32.39.98,0,.82-1.25.76-1.17-.06.06-.55.38-.11.38-.92h-1.18v.42c.78.4.3,1.29-.38,1.12-.3-.08-.48-.37-.39-.74.13-.55.37-.01.37-.81h-1.18c.02.88.39.32.39.98,0,.32-.23.57-.55.59-.36.02-.59-.22-.62-.53-.05-.64.39-.2.39-1.03h-.79v1.96Z"/>
      <path class="cls-1" d="M.81,2.39h.79c0-.06,0-.2,0-.25-.08-.44-.29-.17-.38-.6-.08-.4.18-.69.55-.71.38-.01.65.27.61.65-.04.41-.29.28-.37.6-.02.09-.01.22-.01.32h1.18c0-.85-.43-.36-.39-1.02.05-.72,1.12-.73,1.17,0,.04.68-.39.16-.39,1.01h1.18s0-.38,0-.38c-.21-.18-.47-.28-.36-.76.17-.71,1.38-.49,1.12.33-.14.45-.36.07-.36.81h1.18c0-.8-.28-.35-.38-.86-.08-.39.19-.7.56-.71.38,0,.64.28.6.67-.07.64-.38.07-.38.87l1.18.03c0-.85-.43-.32-.39-1.02.05-.74,1.12-.71,1.17,0,.04.64-.38.16-.38,1.02h1.18c0-.06,0-.2,0-.26-.06-.32.04-.06-.11-.23-.14-.16-.21-.11-.26-.38-.23-1.19,1.93-.68.92.34-.1.11-.09.05-.13.2-.02.09-.01.22-.01.32h.78s0-1.96,0-1.96H.87s-.06,1.96-.06,1.96Z"/>
      <polygon class="cls-1" points="1.6 7.1 1.83 7.13 5.26 7.12 5.53 7.12 5.54 4.37 1.6 4.37 1.6 7.1"/>
      <path class="cls-2" d="M8.06,4.04c-2.4.68-1.24,4.08.94,3.41,2.21-.68,1.24-4.03-.94-3.41Z"/>
      <path class="cls-1" d="M8.14,4.44c-1.87.57-.92,3.12.73,2.62,1.77-.54.93-3.13-.73-2.62Z"/>
    </g>
  </g>
</svg>