<?xml version="1.0" encoding="UTF-8"?>
<svg id="Ebene_2" data-name="Ebene 2" xmlns="http://www.w3.org/2000/svg" viewBox="0 0 211.88 274.58">
  <defs>
    <style>
      .cls-1 {
        stroke: #372772;
        stroke-width: 4px;
      }

      .cls-1, .cls-2 {
        fill: none;
        stroke-miterlimit: 10;
      }

      .cls-2 {
        stroke: #ff4a1c;
        stroke-width: 8px;
      }
    </style>
  </defs>
  <g id="Ebene_1-2" data-name="Ebene 1">
    <g id="Ebene_1-3" data-name="Ebene_1">
      <rect class="cls-1" x="2" y="2" width="207.48" height="228.89" rx="37.01" ry="37.01"/>
      <path class="cls-1" d="M39.01,230.9h49.83v12.72c0,5.09-4.16,9.25-9.25,9.25h-31.32c-5.09,0-9.25-4.16-9.25-9.25v-12.72h0Z"/>
      <path class="cls-1" d="M122.28,230.9h49.83v12.72c0,5.09-4.16,9.25-9.25,9.25h-31.32c-5.09,0-9.25-4.16-9.25-9.25v-12.72h0Z"/>
      <path class="cls-1" d="M48.26,252.87h32.62v15.09c0,2.54-2.08,4.63-4.63,4.63h-23.37c-2.54,0-4.63-2.08-4.63-4.63v-15.09h0Z"/>
      <path class="cls-1" d="M131.53,252.87h32.62v15.09c0,2.54-2.08,4.63-4.63,4.63h-23.37c-2.54,0-4.63-2.08-4.63-4.63v-15.09h0Z"/>
      <line class="cls-2" x1="68.28" y1="199.1" x2="144.98" y2="199.1"/>
      <circle class="cls-2" cx="103.38" cy="86.16" r="39.32"/>
      <line class="cls-1" x1="2" y1="162.06" x2="211.88" y2="162.06"/>
    </g>
  </g>
</svg>