<?xml version="1.0" encoding="UTF-8"?>
<!DOCTYPE svg PUBLIC "-//W3C//DTD SVG 1.1//EN" "http://www.w3.org/Graphics/SVG/1.1/DTD/svg11.dtd">
<!-- Creator: CorelDRAW 2020 (64-Bit) -->
<svg xmlns="http://www.w3.org/2000/svg" xml:space="preserve" width="60.6642mm" height="49.3226mm" version="1.1" style="shape-rendering:geometricPrecision; text-rendering:geometricPrecision; image-rendering:optimizeQuality; fill-rule:evenodd; clip-rule:evenodd"
viewBox="0 0 3011 2448.07"
 xmlns:xlink="http://www.w3.org/1999/xlink"
 xmlns:xodm="http://www.corel.com/coreldraw/odm/2003">
 <defs>
  <style type="text/css">
   <![CDATA[
    .str0 {stroke:#2B2A29;stroke-width:70.04;stroke-miterlimit:22.9256}
    .str4 {stroke:#2B2A29;stroke-width:52.53;stroke-miterlimit:22.9256}
    .str1 {stroke:#2B2A29;stroke-width:35.02;stroke-miterlimit:22.9256}
    .str2 {stroke:#372772;stroke-width:35.02;stroke-miterlimit:22.9256}
    .str5 {stroke:#FF4A1C;stroke-width:35.02;stroke-miterlimit:22.9256}
    .str3 {stroke:#372772;stroke-width:26.27;stroke-miterlimit:22.9256}
    .fil0 {fill:none}
   ]]>
  </style>
 </defs>
 <g id="Ebene_x0020_1">
  <metadata id="CorelCorpID_0Corel-Layer"/>
  <rect class="fil0 str0" transform="matrix(2.07867E-14 -0.63435 1.11974 2.39688E-14 35.0189 2150.96)" width="3335.6" height="2626.46" rx="253.72" ry="253.72"/>
  <line class="fil0 str0" x1="2116.18" y1="35.02" x2="2116.18" y2= "2150.96" />
  <circle class="fil0 str1" cx="1067.66" cy="1092.99" r="824.17"/>
  <path class="fil0 str2" d="M1197.05 1096.33c105.08,-13.41 210.17,-26.82 296.74,-28.74 86.56,-1.92 154.59,7.66 201.4,21.2 46.79,13.55 72.36,31.05 87.31,51.02 14.94,19.97 19.27,42.41 17.7,61.01 -1.57,18.61 -9.05,33.38 -26.75,48.7 -17.7,15.32 -45.62,31.19 -100.09,38.71 -54.47,7.52 -135.49,6.7 -222.88,-17.34 -87.4,-24.03 -181.18,-71.28 -274.96,-118.53"/>
  <path class="fil0 str2" d="M1054.69 965.36c-13.41,-105.08 -26.82,-210.17 -28.74,-296.74 -1.92,-86.56 7.66,-154.59 21.2,-201.4 13.55,-46.79 31.05,-72.36 51.02,-87.31 19.97,-14.94 42.41,-19.27 61.01,-17.7 18.61,1.57 33.38,9.05 48.7,26.75 15.32,17.7 31.19,45.62 38.71,100.09 7.52,54.47 6.7,135.49 -17.34,222.88 -24.03,87.4 -71.28,181.18 -118.53,274.96"/>
  <path class="fil0 str2" d="M929.29 1119.95c-105.08,13.41 -210.17,26.82 -296.74,28.74 -86.56,1.92 -154.59,-7.66 -201.4,-21.2 -46.79,-13.55 -72.36,-31.05 -87.31,-51.02 -14.94,-19.97 -19.27,-42.41 -17.7,-61.01 1.57,-18.61 9.05,-33.38 26.75,-48.7 17.7,-15.32 45.62,-31.19 100.09,-38.71 54.47,-7.52 135.49,-6.7 222.88,17.34 87.4,24.03 181.18,71.28 274.96,118.53"/>
  <path class="fil0 str2" d="M1065.48 1224.92c13.41,105.08 26.82,210.17 28.74,296.74 1.92,86.56 -7.66,154.59 -21.2,201.4 -13.55,46.79 -31.05,72.36 -51.02,87.31 -19.97,14.94 -42.41,19.27 -61.01,17.7 -18.61,-1.57 -33.38,-9.05 -48.7,-26.75 -15.32,-17.7 -31.19,-45.62 -38.71,-100.09 -7.52,-54.47 -6.7,-135.49 17.34,-222.88 24.03,-87.4 71.28,-181.18 118.53,-274.96"/>
  <line class="fil0 str3" x1="2230.59" y1="583.29" x2="2851.08" y2= "583.29" />
  <line class="fil0 str3" x1="2230.59" y1="682.57" x2="2851.08" y2= "682.57" />
  <line class="fil0 str3" x1="2230.59" y1="781.84" x2="2851.08" y2= "781.84" />
  <line class="fil0 str3" x1="2230.59" y1="881.11" x2="2851.08" y2= "881.11" />
  <path class="fil0 str4" d="M388.32 2150.96l382.44 0 0 201.35c0,38.22 -31.27,69.49 -69.49,69.49l-243.47 0c-38.22,0 -69.49,-31.27 -69.49,-69.49l0 -201.35z"/>
  <path class="fil0 str4" d="M2269.25 2150.96l382.44 0 0 201.35c0,38.22 -31.27,69.49 -69.49,69.49l-243.47 0c-38.22,0 -69.49,-31.27 -69.49,-69.49l0 -201.35z"/>
  <ellipse class="fil0 str5" transform="matrix(0.127265 -0.106788 0.128203 0.152786 1066.45 1093.14)" rx="746.9" ry="622.14"/>
 </g>
</svg>
