<?xml version="1.0" encoding="UTF-8"?>
<!DOCTYPE svg PUBLIC "-//W3C//DTD SVG 1.1//EN" "http://www.w3.org/Graphics/SVG/1.1/DTD/svg11.dtd">
<!-- Creator: CorelDRAW 2020 (64-Bit) -->
<svg xmlns="http://www.w3.org/2000/svg" xml:space="preserve" width="41.4735mm" height="61.653mm" version="1.1" style="shape-rendering:geometricPrecision; text-rendering:geometricPrecision; image-rendering:optimizeQuality; fill-rule:evenodd; clip-rule:evenodd"
viewBox="0 0 1409.95 2095.98"
 xmlns:xlink="http://www.w3.org/1999/xlink"
 xmlns:xodm="http://www.corel.com/coreldraw/odm/2003">
 <defs>
  <style type="text/css">
   <![CDATA[
    .str1 {stroke:#FF4A1C;stroke-width:47.97;stroke-miterlimit:22.9256}
    .str0 {stroke:#2B2A29;stroke-width:35.98;stroke-miterlimit:22.9256}
    .str2 {stroke:#372772;stroke-width:23.99;stroke-miterlimit:22.9256}
    .str3 {stroke:#372772;stroke-width:6.8;stroke-miterlimit:22.9256}
    .fil0 {fill:none}
   ]]>
  </style>
 </defs>
 <g id="Ebene_x0020_1">
  <metadata id="CorelCorpID_0Corel-Layer"/>
  <rect class="fil0 str0" x="17.99" y="17.99" width="1373.97" height="2060" rx="369.83" ry="407.96"/>
  <line class="fil0 str0" x1="17.99" y1="387.81" x2="1391.96" y2= "387.81" />
  <line class="fil0 str0" x1="17.99" y1="1708.17" x2="1391.96" y2= "1708.17" />
  <circle class="fil0 str1" cx="707.67" cy="1474.38" r="131.65"/>
  <g id="_1596143231952">
   <line class="fil0 str2" x1="398.19" y1="891.1" x2="990.65" y2= "891.1" />
   <line class="fil0 str2" x1="486.6" y1="891.1" x2="448.13" y2= "824.42" />
   <line class="fil0 str2" x1="486.6" y1="894.21" x2="448.13" y2= "960.89" />
   <line class="fil0 str3" x1="483.31" y1="885.39" x2="482.43" y2= "894.31" />
   <line class="fil0 str2" x1="910.52" y1="891.1" x2="948.99" y2= "824.42" />
   <line class="fil0 str2" x1="910.52" y1="894.21" x2="948.99" y2= "960.89" />
   <line class="fil0 str3" x1="913.81" y1="885.39" x2="914.69" y2= "894.31" />
   <line class="fil0 str2" x1="692.87" y1="1188.88" x2="692.87" y2= "596.43" />
   <line class="fil0 str2" x1="692.87" y1="1100.47" x2="626.18" y2= "1138.95" />
   <line class="fil0 str2" x1="695.98" y1="1100.47" x2="762.66" y2= "1138.95" />
   <line class="fil0 str3" x1="687.15" y1="1103.77" x2="696.07" y2= "1104.65" />
   <line class="fil0 str2" x1="692.87" y1="676.56" x2="626.18" y2= "638.09" />
   <line class="fil0 str2" x1="695.98" y1="676.56" x2="762.66" y2= "638.09" />
   <line class="fil0 str3" x1="687.15" y1="673.27" x2="696.07" y2= "672.38" />
   <line class="fil0 str2" x1="483.86" y1="1101.02" x2="902.79" y2= "682.09" />
   <line class="fil0 str2" x1="546.37" y1="1038.51" x2="472.02" y2= "1018.56" />
   <line class="fil0 str2" x1="548.57" y1="1040.7" x2="568.52" y2= "1115.06" />
   <line class="fil0 str3" x1="540" y1="1036.8" x2="545.69" y2= "1043.72" />
   <line class="fil0 str2" x1="846.12" y1="738.75" x2="826.18" y2= "664.4" />
   <line class="fil0 str2" x1="848.33" y1="740.95" x2="922.68" y2= "760.9" />
   <line class="fil0 str3" x1="844.41" y1="732.38" x2="851.34" y2= "738.07" />
   <line class="fil0 str2" x1="908.64" y1="1103.22" x2="489.71" y2= "684.29" />
   <line class="fil0 str2" x1="846.12" y1="1040.7" x2="826.18" y2= "1115.06" />
   <line class="fil0 str2" x1="848.32" y1="1038.51" x2="922.68" y2= "1018.56" />
   <line class="fil0 str3" x1="844.41" y1="1047.08" x2="851.34" y2= "1041.39" />
   <line class="fil0 str2" x1="546.37" y1="740.95" x2="472.02" y2= "760.9" />
   <line class="fil0 str2" x1="548.57" y1="738.75" x2="568.52" y2= "664.4" />
   <line class="fil0 str3" x1="540" y1="742.66" x2="545.69" y2= "735.74" />
  </g>
 </g>
</svg>
