<?xml version="1.0" encoding="UTF-8"?>
<!DOCTYPE svg PUBLIC "-//W3C//DTD SVG 1.1//EN" "http://www.w3.org/Graphics/SVG/1.1/DTD/svg11.dtd">
<!-- Creator: CorelDRAW 2020 (64-Bit) -->
<svg xmlns="http://www.w3.org/2000/svg" xml:space="preserve" width="68.1634mm" height="49.3013mm" version="1.1" style="shape-rendering:geometricPrecision; text-rendering:geometricPrecision; image-rendering:optimizeQuality; fill-rule:evenodd; clip-rule:evenodd"
viewBox="0 0 3260.96 2358.59"
 xmlns:xlink="http://www.w3.org/1999/xlink"
 xmlns:xodm="http://www.corel.com/coreldraw/odm/2003">
 <defs>
  <style type="text/css">
   <![CDATA[
    .str5 {stroke:#2B2A29;stroke-width:67.51;stroke-miterlimit:22.9256}
    .str2 {stroke:#2B2A29;stroke-width:33.76;stroke-miterlimit:22.9256}
    .str0 {stroke:#372772;stroke-width:33.76;stroke-miterlimit:22.9256}
    .str1 {stroke:#FF4A1C;stroke-width:33.76;stroke-miterlimit:22.9256}
    .str3 {stroke:#372772;stroke-width:25.32;stroke-miterlimit:22.9256}
    .str4 {stroke:#FF4A1C;stroke-width:25.32;stroke-miterlimit:22.9256}
    .fil0 {fill:none}
   ]]>
  </style>
 </defs>
 <g id="Ebene_x0020_1">
  <metadata id="CorelCorpID_0Corel-Layer"/>
  <rect class="fil0 str0" x="428.26" y="1507.76" width="259.49" height="340.17"/>
  <line class="fil0 str0" x1="428.26" y1="1631.44" x2="687.74" y2= "1566.57" />
  <line class="fil0 str0" x1="428.26" y1="1729.23" x2="687.74" y2= "1794.1" />
  <rect class="fil0 str1" x="447.22" y="497.51" width="259.49" height="323.56"/>
  <line class="fil0 str1" x1="447.22" y1="612.65" x2="706.71" y2= "547.78" />
  <line class="fil0 str1" x1="447.22" y1="710.44" x2="706.71" y2= "775.31" />
  <rect class="fil0 str2" x="1187.72" y="1311.81" width="207.25" height="792.7"/>
  <line class="fil0 str3" x1="1262.14" y1="1398.84" x2="1262.14" y2= "2007.99" />
  <line class="fil0 str3" x1="1329.11" y1="1398.84" x2="1329.11" y2= "2007.99" />
  <rect class="fil0 str2" x="1206.68" y="260.6" width="207.25" height="792.7"/>
  <line class="fil0 str4" x1="1281.1" y1="347.62" x2="1281.1" y2= "956.78" />
  <line class="fil0 str4" x1="1348.08" y1="347.62" x2="1348.08" y2= "956.78" />
  <rect class="fil0 str5" x="1187.72" y="33.75" width="2039.48" height="2291.08" rx="155.13" ry="221.32"/>
  <path class="fil0 str2" d="M1206.69 476.58l-1123 0c-26.31,0 -47.84,21.53 -47.84,47.84l0 265.06c0,26.31 21.53,47.84 47.84,47.84l1123 0 0 -360.74z"/>
  <path class="fil0 str2" d="M1187.72 1495.37l-1123 0c-26.31,0 -47.84,21.53 -47.84,47.84l0 265.06c0,26.31 21.53,47.84 47.84,47.84l1123 0 0 -360.74z"/>
 </g>
</svg>
