<?xml version="1.0" encoding="UTF-8"?>
<!DOCTYPE svg PUBLIC "-//W3C//DTD SVG 1.1//EN" "http://www.w3.org/Graphics/SVG/1.1/DTD/svg11.dtd">
<!-- Creator: CorelDRAW 2020 (64-Bit) -->
<svg xmlns="http://www.w3.org/2000/svg" xml:space="preserve" width="74.6047mm" height="89.7411mm" version="1.1" style="shape-rendering:geometricPrecision; text-rendering:geometricPrecision; image-rendering:optimizeQuality; fill-rule:evenodd; clip-rule:evenodd"
viewBox="0 0 6962.91 8375.61"
 xmlns:xlink="http://www.w3.org/1999/xlink"
 xmlns:xodm="http://www.corel.com/coreldraw/odm/2003">
 <defs>
  <style type="text/css">
   <![CDATA[
    .str0 {stroke:black;stroke-width:131.7;stroke-miterlimit:22.9256}
    .str1 {stroke:#372772;stroke-width:131.7;stroke-miterlimit:22.9256}
    .str2 {stroke:#FF4A1C;stroke-width:263.4;stroke-miterlimit:22.9256}
    .fil0 {fill:none}
    .fil1 {fill:#FEFEFE;fill-rule:nonzero}
   ]]>
  </style>
 </defs>
 <g id="Ebene_x0020_1">
  <metadata id="CorelCorpID_0Corel-Layer"/>
  <rect class="fil0 str0" x="65.85" y="773.38" width="6831.21" height="7536.29" rx="1218.55" ry="1218.55"/>
  <line class="fil0 str1" x1="639.26" y1="7284.54" x2="6294.13" y2= "7284.54" />
  <line class="fil0 str1" x1="4864.33" y1="7284.54" x2="4864.33" y2= "4778.81" />
  <circle class="fil0 str2" cx="4864.33" cy="4417.38" r="361.42"/>
  <line class="fil0 str1" x1="4567.86" y1="5488.75" x2="5154.34" y2= "5488.75" />
  <line class="fil0 str1" x1="2363.06" y1="6766.66" x2="2363.06" y2= "4778.81" />
  <circle class="fil0 str2" cx="2363.06" cy="4417.38" r="361.42"/>
  <line class="fil0 str1" x1="2066.6" y1="5488.75" x2="2653.08" y2= "5488.75" />
  <line class="fil0 str1" x1="639.26" y1="6752.56" x2="4417.4" y2= "6752.56" />
  <line class="fil0 str1" x1="5300.2" y1="6752.56" x2="6284.02" y2= "6752.56" />
  <path class="fil1 str1" d="M3636.16 260.14c185.66,709.54 742.69,1064.3 742.69,1419.06 0,354.79 -185.66,709.55 -742.69,709.55 -557.02,0 -742.68,-354.76 -742.68,-709.55 0,-354.76 557.02,-709.52 742.68,-1419.06z"/>
 </g>
</svg>
