<?xml version="1.0" encoding="UTF-8"?>
<!DOCTYPE svg PUBLIC "-//W3C//DTD SVG 1.1//EN" "http://www.w3.org/Graphics/SVG/1.1/DTD/svg11.dtd">
<!-- Creator: CorelDRAW 2020 (64-Bit) -->
<svg xmlns="http://www.w3.org/2000/svg" xml:space="preserve" width="71.3727mm" height="41.3309mm" version="1.1" style="shape-rendering:geometricPrecision; text-rendering:geometricPrecision; image-rendering:optimizeQuality; fill-rule:evenodd; clip-rule:evenodd"
viewBox="0 0 6548.68 3792.25"
 xmlns:xlink="http://www.w3.org/1999/xlink"
 xmlns:xodm="http://www.corel.com/coreldraw/odm/2003">
 <defs>
  <style type="text/css">
   <![CDATA[
    .str1 {stroke:#2B2A29;stroke-width:129.47;stroke-miterlimit:22.9256}
    .str0 {stroke:#372772;stroke-width:129.47;stroke-miterlimit:22.9256}
    .str2 {stroke:#FF4A1C;stroke-width:64.74;stroke-miterlimit:22.9256}
    .fil0 {fill:none}
   ]]>
  </style>
 </defs>
 <g id="Ebene_x0020_1">
  <metadata id="CorelCorpID_0Corel-Layer"/>
  <g id="_1699567178896">
   <path class="fil0 str0" d="M43.45 3401.9c486.95,-441.02 917.73,-441.02 1292.35,0"/>
   <path class="fil0 str0" d="M2626.71 3396.74c-486.95,441.03 -917.73,441.03 -1292.35,0"/>
   <path class="fil0 str0" d="M2625.23 3401.9c486.95,-441.02 917.73,-441.02 1292.35,0"/>
   <path class="fil0 str0" d="M5208.49 3396.74c-486.95,441.03 -917.74,441.03 -1292.35,0"/>
   <path class="fil0 str0" d="M5206.99 3401.9c486.96,-441.02 917.74,-441.02 1292.35,0"/>
  </g>
  <circle class="fil0 str1" cx="3415.69" cy="1227.7" r="1162.96"/>
  <polyline class="fil0 str1" points="5581.83,1847.76 5581.83,570.79 5026.05,570.79 "/>
  <polyline class="fil0 str1" points="5581.83,570.79 5581.83,1847.76 5029.89,1847.76 "/>
  <path class="fil0 str1" d="M5094.23 570.79c-18.5,213.55 -114.65,314.84 -288.46,303.86"/>
  <path class="fil0 str1" d="M5092.67 1915.78c-18.49,-213.55 -114.65,-314.84 -288.46,-303.86"/>
  <line class="fil0 str1" x1="4874.33" y1="874.37" x2="4865.94" y2= "1611.71" />
  <rect class="fil0 str2" x="2793.04" y="727.59" width="1246.18" height="323.09"/>
  <circle class="fil0 str2" cx="3400.76" cy="1673.23" r="255.85"/>
  <polyline class="fil0 str1" points="1235,1847.76 1235,570.79 1790.78,570.79 "/>
  <polyline class="fil0 str1" points="1235,570.79 1235,1847.76 1786.94,1847.76 "/>
  <path class="fil0 str1" d="M1722.6 570.79c18.5,213.55 114.65,314.84 288.46,303.86"/>
  <path class="fil0 str1" d="M1724.16 1915.78c18.49,-213.55 114.65,-314.84 288.46,-303.86"/>
  <line class="fil0 str1" x1="1942.5" y1="874.37" x2="1950.9" y2= "1611.71" />
 </g>
</svg>
