<?xml version="1.0" encoding="UTF-8"?>
<svg id="Layer_1" data-name="Layer 1" xmlns="http://www.w3.org/2000/svg" viewBox="0 0 2000 2000">
  <defs>
    <style>
      .cls-1 {
        fill: #fff;
      }

      .cls-2 {
        fill: #90979e;
      }

      .cls-3 {
        fill: #f1f2f4;
      }
    </style>
  </defs>
  <rect class="cls-1" width="2000" height="2000"/>
  <rect class="cls-3" x="180" y="180" width="1640" height="1640"/>
  <g>
    <path class="cls-2" d="M1462.97,1355.65H537.03c-34.26,0-62.03-27.77-62.03-62.03V706.39c0-34.26,27.77-62.03,62.03-62.03h925.93c34.26,0,62.03,27.77,62.03,62.03v587.22c0,34.26-27.77,62.03-62.03,62.03ZM537.03,678.23c-15.55,0-28.16,12.61-28.16,28.16v587.22c0,15.55,12.61,28.16,28.16,28.16h925.93c15.55,0,28.16-12.61,28.16-28.16V706.39c0-15.55-12.61-28.16-28.16-28.16H537.03Z"/>
    <path class="cls-2" d="M1240.66,1311.63l-90.21-107.18-61.21,60.22c-3.7,3.64-8.51,5.46-13.32,5.46s-9.83-1.89-13.55-5.68c-7.36-7.48-7.26-19.51,.22-26.87l61.65-60.65c.94-.93,1.01-2.42,.16-3.43l-237.76-282.48c-5.42-6.44-15.33-6.43-20.74,.01l-349.49,416.09c-.86,1.02-1.52,2.11-2.03,3.22,5.13,6.94,13.37,11.43,22.65,11.43h706.75c.38-3.43-.54-7.07-3.12-10.14Z"/>
    <path class="cls-2" d="M1483.73,1312.64c-.48-.68-1.03-1.35-1.67-1.97l-223.93-220.07c-5.27-5.18-13.72-5.18-18.99,0l-235.28,231.18h459.11c8.22,0,15.61-3.52,20.76-9.14Z"/>
    <circle class="cls-2" cx="1218.45" cy="857.72" r="93.07"/>
  </g>
</svg>