<?xml version="1.0" encoding="utf-8"?>
<!-- Generator: Adobe Illustrator 28.1.0, SVG Export Plug-In . SVG Version: 6.00 Build 0)  -->
<svg version="1.1" id="Ebene_1" xmlns="http://www.w3.org/2000/svg" xmlns:xlink="http://www.w3.org/1999/xlink" x="0px" y="0px"
	 viewBox="0 0 1920 395" style="enable-background:new 0 0 1920 395;" xml:space="preserve">
<g>
	<g id="Ebene_11">
		<path d="M1014.8,388.3V72.2H893.1V5c0,0,252.1,0,284,0c26.2,0,45.9,16.2,45.9,43.3c0,21.4,0,23.9,0,23.9h-122.2v316.1H1014.8z"/>
	</g>
	<g id="Ebene_10">
		<path d="M1.6,388.3V46.1C1.6,46.1-2.8,5,43.3,5c17.6,0,131.4,0,131.4,0c27.4,0,51.6,5,72.6,15.1c21,10,37.3,24.6,49,43.5
			c11.7,19,17.5,40.9,17.5,65.7c0,25.2-5.8,47.3-17.5,66.3c-11.7,19-28,33.6-49,43.8c-21,10.2-45,15.3-72,15.3H87c0,0,0,79.5,0,91
			c0,28.8-10.8,42.6-35.1,42.6C17.3,388.3,1.6,388.3,1.6,388.3z M159.3,184.6c12.8,0,24.2-2.2,34.2-6.6c10-4.4,17.8-10.7,23.3-18.9
			c5.5-8.2,8.2-21,8.2-32.7c0-10.6-2.7-20-8.2-28.2c-5.5-8.2-13.2-14.6-23.3-19.2c-10-4.6-21.5-6.8-34.2-6.8H87v112.4L159.3,184.6
			L159.3,184.6z"/>
	</g>
	<g id="Ebene_9">
		<path d="M344.4,345.4c0-32.9,0-340.4,0-340.4H427v313.9h204.9v69.4c0,0-221.6,0-246.5,0C360.5,388.3,344.4,375.4,344.4,345.4z"/>
	</g>
	<g id="Ebene_8">
		<path d="M1244.7,388.3c0,0,0-312.9,0-340S1264.9,5,1289,5s235,0,235,0v67.8h-194.5v84.4h166.6v65.6h-166.6v97.7H1524v67.8
			L1244.7,388.3L1244.7,388.3z"/>
	</g>
	<g id="Ebene_7">
		<g>
			<polygon points="518.1,363.9 518.1,363.9 518.1,364.9 518.6,363.9 518.6,363.9 518.6,363.9 			"/>
			<path d="M874.6,5c-3.1,0-84.6,0-84.6,0l-93.7,146.6L602.6,5h-84.6l131.4,203.2l7.7,9.7l0,0v170.9c0,0,7.4,0,34.3,0
				c30.5,0,43.9-16.9,43.9-42.3c0-4.5,0.2-127.8,0.2-127.8l8.5-10.5L875.5,5C875.3,5,875,5,874.6,5z"/>
			<polygon points="875,363.9 875,363.9 875,363.9 876,364.9 876,363.9 876,363.9 			"/>
			<polygon points="516.8,364.9 517.8,363.9 516.8,363.9 			"/>
			<polygon points="874.6,364.9 874.6,363.9 874.1,363.9 			"/>
		</g>
	</g>
	<g id="Ebene_6">
		<g>
			<g>
				<path d="M1686.8,320.4c-53.5-15.2-92.7-64.5-92.7-122.8c0-70.5,57.2-127.7,127.7-127.7c57.1,0,105.4,37.5,121.8,89.2
					c3.8,11.9,9.7,37.8,39.7,37.8c24.3,0,35.7,0,35.7,0c-0.4-108.6-88.5-196.5-197.2-196.5c-108.9,0-197.2,88.3-197.2,197.2
					s88.3,197.2,197.2,197.2c0,0,0-6.3,0-35.7S1697.9,323.6,1686.8,320.4z"/>
			</g>
			<path d="M1872.9,301.9c-29.3,0-46.1-25.1-46.1-46.1c0-25.4-20.6-46.1-46.1-46.1s-46.1,20.6-46.1,46.1s20.6,46.1,46.1,46.1
				c27.9,0,46.1,23.7,46.1,46.1c0,25.4,20.6,46.1,46.1,46.1s46.1-20.6,46.1-46.1S1898.3,301.9,1872.9,301.9z"/>
		</g>
	</g>
</g>
</svg>
