<?xml version="1.0" encoding="UTF-8"?>
<svg id="Ebene_2" data-name="Ebene 2" xmlns="http://www.w3.org/2000/svg" viewBox="0 0 1917.51 521.15">
  <defs>
    <style>
      .cls-1 {
        fill: #fff;
      }
    </style>
  </defs>
  <g id="Ebene_6" data-name="Ebene 6">
    <g>
      <path class="cls-1" d="M1013.3,387.98V71.9h-121.69V4.66h283.97c26.21,0,45.92,16.15,45.92,43.29v23.94h-122.23V387.98h-85.97Z"/>
      <path class="cls-1" d="M.12,387.98V45.75S-4.32,4.66,41.78,4.66H173.16c27.38,0,51.56,5.02,72.56,15.06,20.99,10.04,37.32,24.55,49.01,43.53,11.68,18.99,17.52,40.89,17.52,65.71s-5.84,47.28-17.52,66.26c-11.69,18.99-28.02,33.59-49.01,43.81-21,10.22-45,15.33-72.01,15.33H85.54v91.03c0,28.81-10.77,42.58-35.12,42.58H.12ZM157.82,184.28c12.77,0,24.18-2.19,34.23-6.57,10.04-4.38,17.8-10.68,23.27-18.89,5.48-8.21,8.22-21.01,8.22-32.7,0-10.59-2.74-19.99-8.22-28.2-5.48-8.22-13.24-14.6-23.27-19.17-10.04-4.56-21.45-6.85-34.23-6.85H85.54v112.38h72.28Z"/>
      <path class="cls-1" d="M342.93,345.07V4.66h82.57V318.56h204.93v69.43h-246.48c-24.92,0-41.01-12.92-41.01-42.92Z"/>
      <path class="cls-1" d="M1243.17,387.98V47.96c0-27.14,20.25-43.29,44.33-43.29h235.02V72.45h-194.47v84.45h166.57v65.59h-166.57v97.71h194.47v67.78h-279.35Z"/>
      <g>
        <polygon class="cls-1" points="516.6 363.51 516.6 363.51 516.6 364.53 517.11 363.51 517.11 363.51 517.11 363.51 516.6 363.51"/>
        <path class="cls-1" d="M873.16,4.65h-84.56l-93.73,146.62L601.15,4.7h-84.56l131.42,203.25,7.67,9.71h0v170.9h34.28c30.45,0,43.91-16.91,43.91-42.34,0-4.49,.2-127.79,.2-127.79l8.49-10.49L873.98,4.65h-.82Z"/>
        <polygon class="cls-1" points="873.47 363.51 873.47 363.51 873.47 363.51 874.49 364.53 874.49 363.51 874.49 363.51 873.47 363.51"/>
        <polygon class="cls-1" points="515.27 364.53 516.29 363.51 515.27 363.51 515.27 364.53"/>
        <polygon class="cls-1" points="873.16 364.53 873.16 363.51 872.65 363.51 873.16 364.53"/>
      </g>
      <g>
        <path class="cls-1" d="M1685.32,320.06c-53.51-15.21-92.7-64.45-92.7-122.84,0-70.53,57.17-127.7,127.7-127.7,57.11,0,105.45,37.49,121.78,89.2,3.77,11.93,9.72,37.79,39.72,37.79h35.71c-.39-108.59-88.52-196.51-197.2-196.51s-197.22,88.3-197.22,197.22,88.3,197.22,197.22,197.22v-35.67c0-29.34-23.87-35.55-34.99-38.71Z"/>
        <path class="cls-1" d="M1871.37,301.5c-29.32,0-46.07-25.13-46.07-46.07,0-25.44-20.62-46.07-46.07-46.07s-46.07,20.62-46.07,46.07,20.62,46.07,46.07,46.07c27.92,0,46.07,23.73,46.07,46.07,0,25.44,20.62,46.07,46.07,46.07s46.07-20.62,46.07-46.07-20.62-46.07-46.07-46.07Z"/>
      </g>
    </g>
  </g>
</svg>