<?xml version="1.0" encoding="UTF-8"?>
<!DOCTYPE svg PUBLIC "-//W3C//DTD SVG 1.1//EN" "http://www.w3.org/Graphics/SVG/1.1/DTD/svg11.dtd">
<!-- Creator: CorelDRAW 2020 (64-Bit) -->
<svg xmlns="http://www.w3.org/2000/svg" xml:space="preserve" width="69.946mm" height="81.3154mm" version="1.1" style="shape-rendering:geometricPrecision; text-rendering:geometricPrecision; image-rendering:optimizeQuality; fill-rule:evenodd; clip-rule:evenodd"
viewBox="0 0 134164.51 155972.33"
 xmlns:xlink="http://www.w3.org/1999/xlink"
 xmlns:xodm="http://www.corel.com/coreldraw/odm/2003">
 <defs>
  <style type="text/css">
   <![CDATA[
    .str0 {stroke:#2B2A29;stroke-width:2706.65;stroke-miterlimit:22.9256}
    .str1 {stroke:#372772;stroke-width:2706.65;stroke-miterlimit:22.9256;stroke-dasharray:2706.652789 2706.652789}
    .fil0 {fill:none}
    .fil1 {fill:#FF4A1C;fill-rule:nonzero}
   ]]>
  </style>
 </defs>
 <g id="Ebene_x0020_1">
  <metadata id="CorelCorpID_0Corel-Layer"/>
  <rect class="fil0 str0" x="32670.94" y="1353.15" width="100140.06" height="153265.49" rx="20833.94" ry="20207.11"/>
  <g>
   <polygon class="fil1" points="57922.1,101390.82 110972.96,101390.82 110972.96,104097.66 57922.1,104097.66 "/>
  </g>
  <g>
   <path class="fil1" d="M54508.24 105614.7l-270.84 0 0 0 25.32 -866.99 44.12 -484.13 43.35 -281.39 44.88 -204.28 48.72 -171.67 54.47 -154.79 60.61 -145.01 67.33 -138.3 74.04 -132.54 80.94 -127.75 87.47 -123.14 93.99 -118.54 100.51 -114.51 106.65 -109.72 112.79 -105.3 118.54 -100.7 124.1 -95.71 129.86 -90.92 134.65 -85.74 140.21 -80.37 144.43 -75 149.42 -69.63 153.64 -63.49 157.86 -57.74 161.7 -51.6 165.34 -45.27 168.99 -38.94 172.25 -32.22 175.32 -25.32 178.19 -18.22 180.69 -11.13 183.18 -3.84 0 2706.84 -182.03 3.45 -179.54 11.13 -177.04 18.22 -174.16 25.32 -171.1 31.84 -167.84 38.55 -164.19 44.88 -160.55 51.21 -156.71 57.35 -152.11 63.11 -147.89 68.86 -143.28 74.23 -138.3 79.6 -133.12 84.59 -127.94 89.77 -122.18 94.18 -116.24 98.78 -110.48 103 -103.96 107.03 -97.44 110.68 -90.54 114.32 -83.25 117.39 -75.96 119.69 -67.9 121.8 -60.04 122.57 -50.64 121.61 -41.43 117.58 -30.31 106.07 -17.65 78.45 -1.53 5.95 16.5 -192.58 16.11 -571.6 0 0zm3412.71 1517.23l0 2706.84 -183.18 -3.84 -180.69 -11.13 -178.19 -18.22 -175.32 -25.32 -172.25 -32.22 -168.99 -38.94 -165.34 -45.27 -161.7 -51.6 -157.86 -57.74 -153.64 -63.49 -149.42 -69.63 -144.43 -75 -140.21 -80.37 -134.65 -85.74 -129.86 -90.92 -124.1 -95.71 -118.54 -100.7 -112.79 -105.3 -106.65 -109.72 -100.51 -114.51 -93.99 -118.54 -87.47 -123.14 -80.94 -127.75 -74.04 -132.54 -67.33 -138.3 -60.61 -145.01 -54.47 -155.18 -48.72 -171.48 -44.88 -204.28 -43.35 -281.39 -44.12 -484.13 -25.32 -866.99 270.84 0 -16.11 -571.6 -16.5 -192.58 1.53 5.95 17.65 78.45 30.31 106.26 41.43 117.58 50.64 121.61 60.04 122.57 67.9 121.8 75.96 119.69 83.25 117.39 90.54 114.32 97.44 110.68 103.96 107.03 110.48 103 116.24 98.78 122.18 94.18 127.94 89.77 133.12 84.59 138.3 79.6 143.28 74.23 147.89 68.86 152.11 63.11 156.71 57.35 160.55 51.21 164.19 44.88 167.84 38.55 171.1 31.84 174.16 25.32 177.04 18.22 179.54 11.13 182.03 3.45z"/>
  </g>
  <g>
   <path class="fil1" d="M114385.48 99873.59l270.84 0 0 0 -25.32 866.99 -44.12 484.13 -43.35 281.39 -44.88 204.28 -48.72 171.48 -54.67 155.37 -60.61 144.82 -67.13 138.1 -74.04 132.73 -80.94 127.75 -87.47 123.14 -94.18 118.54 -100.32 114.51 -106.84 109.72 -112.59 105.3 -118.54 100.7 -124.29 95.71 -129.66 90.92 -134.84 85.74 -140.02 80.37 -144.63 75 -149.42 69.63 -153.64 63.49 -157.86 57.74 -161.7 51.6 -165.34 45.27 -168.99 38.94 -172.25 32.22 -175.32 25.32 -178.19 18.22 -180.69 11.13 -183.18 3.84 0 -2706.84 182.03 -3.45 179.54 -11.13 177.04 -18.22 174.16 -25.32 171.1 -31.84 167.84 -38.55 164.19 -44.88 160.55 -51.21 156.71 -57.35 152.11 -63.11 147.89 -68.86 143.48 -74.23 138.1 -79.6 133.31 -84.59 127.75 -89.77 122.38 -94.18 116.24 -98.78 110.29 -103 104.15 -107.03 97.25 -110.68 90.73 -114.32 83.25 -117.39 75.96 -119.69 67.9 -121.61 59.85 -122.76 51.02 -121.8 41.24 -117.39 30.31 -106.26 17.65 -78.45 1.53 -5.95 -16.5 192.58 -16.11 571.6 0 0zm-3412.9 -1517.04l0 -2706.84 183.18 3.84 180.69 11.13 178.19 18.22 175.32 25.32 172.25 32.22 168.99 38.94 165.34 45.27 161.7 51.6 157.86 57.74 153.64 63.49 149.42 69.63 144.63 75 140.02 80.37 134.84 85.74 129.66 90.92 124.29 95.71 118.54 100.7 112.59 105.3 106.84 109.72 100.32 114.51 94.18 118.54 87.47 123.14 80.94 127.75 74.04 132.73 67.13 138.1 60.61 144.82 54.67 154.98 48.72 171.67 44.88 204.28 43.35 281.39 44.12 484.13 25.32 866.99 -270.84 0 16.11 571.6 16.5 192.58 -1.53 -5.95 -17.65 -78.45 -30.31 -106.07 -41.24 -117.39 -51.02 -121.8 -59.85 -122.76 -67.9 -121.61 -75.96 -119.69 -83.25 -117.39 -90.73 -114.32 -97.25 -110.68 -104.15 -107.03 -110.29 -103 -116.24 -98.78 -122.38 -94.18 -127.75 -89.77 -133.31 -84.59 -138.1 -79.6 -143.48 -74.23 -147.89 -68.86 -152.11 -63.11 -156.71 -57.35 -160.55 -51.21 -164.19 -44.88 -167.84 -38.55 -171.1 -31.84 -174.16 -25.32 -177.04 -18.22 -179.54 -11.13 -182.03 -3.45z"/>
  </g>
  <g>
   <polygon class="fil1" points="110973.72,98356.55 45.08,98356.55 45.08,95649.71 110973.72,95649.71 "/>
  </g>
  <path class="fil0 str1" d="M110972.57 108591.42c1959.55,0 3548.32,1285.14 3548.32,2870.65 0,1585.32 -1588.78,2870.46 -3548.32,2870.46"/>
  <path class="fil0 str1" d="M112512.63 127170.29c1585.32,0 2870.65,-1588.78 2870.65,-3548.32"/>
  <line class="fil0 str1" x1="57922.1" y1="114226.46" x2="110972.96" y2= "114226.46" />
  <path class="fil0 str1" d="M57920.95 114226.46c-1959.55,0 -3548.13,1285.14 -3548.13,2870.46 0,1585.32 1588.58,2870.65 3548.13,2870.65"/>
  <line class="fil0 str1" x1="110970.08" y1="119967.58" x2="57920.57" y2= "119967.58" />
  <path class="fil0 str1" d="M112512.63 120073.65c1585.32,0 2870.65,1588.58 2870.65,3548.32"/>
  <line class="fil0 str1" x1="110972.57" y1="127064.03" x2="-2661.58" y2= "127064.03" />
  <g>
   <polygon class="fil1" points="57922.1,107132.51 110972.96,107132.51 110972.96,109839.35 57922.1,109839.35 "/>
  </g>
 </g>
</svg>
