<?xml version="1.0" encoding="UTF-8"?>
<!DOCTYPE svg PUBLIC "-//W3C//DTD SVG 1.1//EN" "http://www.w3.org/Graphics/SVG/1.1/DTD/svg11.dtd">
<!-- Creator: CorelDRAW 2020 (64-Bit) -->
<svg xmlns="http://www.w3.org/2000/svg" xml:space="preserve" width="70.2755mm" height="79.3333mm" version="1.1" style="shape-rendering:geometricPrecision; text-rendering:geometricPrecision; image-rendering:optimizeQuality; fill-rule:evenodd; clip-rule:evenodd"
viewBox="0 0 2233.53 2521.41"
 xmlns:xlink="http://www.w3.org/1999/xlink"
 xmlns:xodm="http://www.corel.com/coreldraw/odm/2003">
 <defs>
  <style type="text/css">
   <![CDATA[
    .str2 {stroke:#2B2A29;stroke-width:33.64;stroke-miterlimit:22.9256}
    .str1 {stroke:#372772;stroke-width:33.64;stroke-miterlimit:22.9256}
    .str0 {stroke:#FF4A1C;stroke-width:33.64;stroke-miterlimit:22.9256}
    .fil0 {fill:none}
   ]]>
  </style>
 </defs>
 <g id="Ebene_x0020_1">
  <metadata id="CorelCorpID_0Corel-Layer"/>
  <line class="fil0 str0" x1="1865.27" y1="1622.65" x2="940.56" y2= "1622.65" />
  <path class="fil0 str0" d="M940.54 1622.65c-34.16,0 -61.85,22.4 -61.85,50.04 0,27.63 27.69,50.04 61.85,50.04"/>
  <path class="fil0 str0" d="M1865.26 1622.65c34.16,0 61.85,-22.4 61.85,-50.04 0,-27.63 -27.69,-50.04 -61.85,-50.04"/>
  <line class="fil0 str0" x1="5.61" y1="1522.58" x2="1865.29" y2= "1522.58" />
  <path class="fil0 str1" d="M1865.26 1724.57c34.16,0 61.85,22.4 61.85,50.04 0,27.63 -27.69,50.04 -61.85,50.04"/>
  <path class="fil0 str1" d="M1892.11 2048.41c27.63,0 50.04,-27.69 50.04,-61.85"/>
  <line class="fil0 str1" x1="940.56" y1="1822.8" x2="1865.27" y2= "1822.8" />
  <path class="fil0 str1" d="M940.54 1822.8c-34.16,0 -61.85,22.4 -61.85,50.04 0,27.63 27.69,50.04 61.85,50.04"/>
  <line class="fil0 str1" x1="1892.11" y1="1922.87" x2="940.53" y2= "1922.87" />
  <path class="fil0 str1" d="M1892.11 1924.72c27.63,0 50.04,27.69 50.04,61.85"/>
  <line class="fil0 str1" x1="1892.11" y1="2046.58" x2="-0" y2= "2046.58" />
  <line class="fil0 str0" x1="1865.27" y1="1722.74" x2="940.56" y2= "1722.74" />
  <rect class="fil0 str2" x="557.43" y="16.82" width="1659.28" height="2487.77" rx="446.62" ry="492.67"/>
 </g>
</svg>
