<?xml version="1.0" encoding="UTF-8"?>
<!DOCTYPE svg PUBLIC "-//W3C//DTD SVG 1.1//EN" "http://www.w3.org/Graphics/SVG/1.1/DTD/svg11.dtd">
<!-- Creator: CorelDRAW 2020 (64-Bit) -->
<svg xmlns="http://www.w3.org/2000/svg" xml:space="preserve" width="74.7478mm" height="96.8657mm" version="1.1" style="shape-rendering:geometricPrecision; text-rendering:geometricPrecision; image-rendering:optimizeQuality; fill-rule:evenodd; clip-rule:evenodd"
viewBox="0 0 6989.65 9057.89"
 xmlns:xlink="http://www.w3.org/1999/xlink"
 xmlns:xodm="http://www.corel.com/coreldraw/odm/2003">
 <defs>
  <style type="text/css">
   <![CDATA[
    .str0 {stroke:#372772;stroke-width:131.95;stroke-miterlimit:22.9256}
    .str1 {stroke:#FF4A1C;stroke-width:263.9;stroke-miterlimit:22.9256}
    .fil0 {fill:none}
   ]]>
  </style>
 </defs>
 <g id="Ebene_x0020_1">
  <metadata id="CorelCorpID_0Corel-Layer"/>
  <rect class="fil0 str0" x="65.98" y="65.9" width="6844.31" height="7550.75" rx="1220.89" ry="1220.89"/>
  <path class="fil0 str0" d="M1286.87 7616.73l1643.77 0 0 419.68c0,167.88 -137.35,305.23 -305.23,305.23l-1033.33 0c-167.87,0 -305.22,-137.35 -305.22,-305.23l0 -419.68z"/>
  <path class="fil0 str0" d="M4033.87 7616.73l1643.78 0 0 419.68c0,167.88 -137.36,305.23 -305.23,305.23l-1033.33 0c-167.88,0 -305.23,-137.35 -305.23,-305.23l0 -419.68z"/>
  <path class="fil0 str0" d="M1592.09 8341.63l1076.06 0 0 497.67c0,83.93 -68.67,152.61 -152.61,152.61l-770.84 0c-83.94,0 -152.62,-68.67 -152.62,-152.61l0 -497.67z"/>
  <path class="fil0 str0" d="M4339.1 8341.63l1076.06 0 0 497.67c0,83.93 -68.68,152.61 -152.62,152.61l-770.84 0c-83.93,0 -152.61,-68.67 -152.61,-152.61l0 -497.67z"/>
  <line class="fil0 str1" x1="2252.59" y1="6567.99" x2="4782.59" y2= "6567.99" />
  <circle class="fil0 str1" cx="3410.45" cy="2842.29" r="1297.2"/>
  <line class="fil0 str0" x1="65.98" y1="5345.87" x2="6989.65" y2= "5345.87" />
 </g>
</svg>
